<svg width="26" height="26" viewBox="0 0 26 26" fill="none" xmlns="http://www.w3.org/2000/svg"><path opacity="0.4" d="M8.66667 23.8334H17.3333C20.3233 23.8334 22.75 21.4067 22.75 18.4167V7.58342C22.75 4.59341 20.3233 2.16675 17.3333 2.16675H8.66667C5.67667 2.16675 3.25 4.59341 3.25 7.58342V18.4167C3.25 21.4067 5.67667 23.8334 8.66667 23.8334Z" fill="#F4D7E1"></path><path d="M16.25 6.18579H9.75005C8.63421 6.18579 7.71338 7.09579 7.71338 8.22246V9.30579C7.71338 10.4216 8.62338 11.3425 9.75005 11.3425H16.25C17.3659 11.3425 18.2867 10.4325 18.2867 9.30579V8.22246C18.2867 7.09579 17.3767 6.18579 16.25 6.18579Z" fill="#F4D7E1"></path><path d="M8.83977 16.1632C8.68811 16.1632 8.54727 16.1307 8.41727 16.0766C8.28727 16.0224 8.16811 15.9466 8.07061 15.8491C7.86477 15.6432 7.74561 15.3724 7.74561 15.0799C7.74561 14.9391 7.77811 14.7982 7.83227 14.6682C7.88644 14.5274 7.96227 14.4191 8.07061 14.3107C8.31977 14.0616 8.69894 13.9424 9.04561 14.0182C9.11061 14.0291 9.18644 14.0507 9.25144 14.0832C9.31644 14.1049 9.38144 14.1374 9.43561 14.1807C9.50061 14.2132 9.55477 14.2674 9.5981 14.3107C9.6956 14.4191 9.78227 14.5274 9.83644 14.6682C9.89061 14.7982 9.91227 14.9391 9.91227 15.0799C9.91227 15.3724 9.80394 15.6432 9.5981 15.8491C9.39227 16.0549 9.12144 16.1632 8.83977 16.1632Z" fill="#F4D7E1"></path><path d="M13.1624 16.1634C12.8808 16.1634 12.6099 16.055 12.4041 15.8492C12.1983 15.6434 12.0791 15.3725 12.0791 15.08C12.0791 14.7984 12.1983 14.5167 12.4041 14.3109C12.8049 13.91 13.5308 13.91 13.9316 14.3109C14.0291 14.4192 14.1158 14.5275 14.1699 14.6684C14.2241 14.7984 14.2458 14.9392 14.2458 15.08C14.2458 15.3725 14.1374 15.6434 13.9316 15.8492C13.7258 16.055 13.4549 16.1634 13.1624 16.1634Z" fill="#F4D7E1"></path><path d="M17.4959 16.1634C17.2143 16.1634 16.9434 16.055 16.7376 15.8492C16.5318 15.6434 16.4126 15.3725 16.4126 15.08C16.4126 14.7984 16.5318 14.5167 16.7376 14.3109C17.1384 13.91 17.8643 13.91 18.2651 14.3109C18.4709 14.5167 18.5901 14.7984 18.5901 15.08C18.5901 15.2209 18.5576 15.3617 18.5034 15.4917C18.4493 15.6217 18.3734 15.7409 18.2651 15.8492C18.0593 16.055 17.7884 16.1634 17.4959 16.1634Z" fill="#F4D7E1"></path><path d="M8.83977 20.4967C8.54727 20.4967 8.27644 20.3884 8.07061 20.1825C7.86477 19.9767 7.74561 19.7059 7.74561 19.4134C7.74561 19.1317 7.86477 18.85 8.07061 18.6442C8.16811 18.5467 8.28727 18.4709 8.41727 18.4167C8.68811 18.3084 8.98061 18.3084 9.25144 18.4167C9.31644 18.4384 9.38144 18.4709 9.43561 18.5142C9.50061 18.5467 9.55477 18.6009 9.59811 18.6442C9.80394 18.85 9.92311 19.1317 9.92311 19.4134C9.92311 19.7059 9.80394 19.9767 9.59811 20.1825C9.39227 20.3884 9.12144 20.4967 8.83977 20.4967Z" fill="#F4D7E1"></path><path d="M13.1624 20.4966C12.8808 20.4966 12.6099 20.3883 12.4041 20.1824C12.1983 19.9766 12.0791 19.7058 12.0791 19.4133C12.0791 19.3374 12.0899 19.2724 12.1008 19.1966C12.1224 19.1316 12.1441 19.0666 12.1658 19.0016C12.1983 18.9366 12.2308 18.8716 12.2633 18.8066C12.3066 18.7524 12.3499 18.6983 12.4041 18.6441C12.5016 18.5466 12.6208 18.4708 12.7508 18.4166C13.1516 18.2541 13.6283 18.3408 13.9316 18.6441C14.1374 18.8499 14.2458 19.1316 14.2458 19.4133C14.2458 19.7058 14.1374 19.9766 13.9316 20.1824C13.8341 20.2799 13.7149 20.3558 13.5849 20.4099C13.4549 20.4641 13.3141 20.4966 13.1624 20.4966Z" fill="#F4D7E1"></path><path d="M17.4958 20.4966C17.355 20.4966 17.2142 20.4641 17.0842 20.4099C16.9542 20.3558 16.835 20.2799 16.7375 20.1824C16.5317 19.9766 16.4233 19.7058 16.4233 19.4133C16.4233 19.1316 16.5317 18.8499 16.7375 18.6441C17.03 18.3408 17.5175 18.2541 17.9183 18.4166C18.0483 18.4708 18.1675 18.5466 18.265 18.6441C18.4708 18.8499 18.5792 19.1316 18.5792 19.4133C18.5792 19.7058 18.4708 19.9766 18.265 20.1824C18.0592 20.3883 17.7883 20.4966 17.4958 20.4966Z" fill="#F4D7E1"></path></svg>