<svg width="26" height="26" fill="none" xmlns="http://www.w3.org/2000/svg"><path d="M23.292 11.808V4.442c0-1.625-.694-2.275-2.416-2.275h-4.377c-1.722 0-2.415.65-2.415 2.275v7.366c0 1.625.693 2.275 2.415 2.275h4.377c1.723 0 2.416-.65 2.416-2.275ZM11.917 14.192v7.366c0 1.625-.694 2.275-2.416 2.275H5.124c-1.722 0-2.415-.65-2.415-2.275v-7.366c0-1.625.693-2.275 2.415-2.275h4.377c1.723 0 2.416.65 2.416 2.275Z" fill="#F4D7E1"></path><path opacity="0.4" d="M23.292 21.558v-3.033c0-1.625-.694-2.275-2.416-2.275h-4.377c-1.722 0-2.415.65-2.415 2.275v3.033c0 1.625.693 2.275 2.415 2.275h4.377c1.723 0 2.416-.65 2.416-2.275ZM11.917 7.475V4.442c0-1.625-.694-2.275-2.416-2.275H5.124c-1.722 0-2.415.65-2.415 2.275v3.033c0 1.625.693 2.275 2.415 2.275h4.377c1.723 0 2.416-.65 2.416-2.275Z" fill="#F4D7E1"></path></svg>