<svg width="26" height="26" viewBox="0 0 26 26" fill="none" xmlns="http://www.w3.org/2000/svg"><path opacity="0.4" d="M12.9998 23.8334C18.9829 23.8334 23.8332 18.9832 23.8332 13.0001C23.8332 7.017 18.9829 2.16675 12.9998 2.16675C7.01675 2.16675 2.1665 7.017 2.1665 13.0001C2.1665 18.9832 7.01675 23.8334 12.9998 23.8334Z" fill="#F4D7E1"></path><path d="M19.3377 14.6576C19.251 14.4626 19.0993 14.3001 18.8935 14.2134C18.796 14.1701 18.6877 14.1484 18.5793 14.1484H7.41016C6.96599 14.1484 6.59766 14.5168 6.59766 14.9609C6.59766 15.4051 6.96599 15.7734 7.41016 15.7734H16.6185L14.7118 17.6801C14.3976 17.9943 14.3976 18.5143 14.7118 18.8284C14.8743 18.9909 15.0801 19.0668 15.286 19.0668C15.4918 19.0668 15.6977 18.9909 15.8602 18.8284L19.1535 15.5351C19.2293 15.4593 19.2835 15.3726 19.3268 15.2751C19.4135 15.0801 19.4135 14.8526 19.3377 14.6576Z" fill="#F4D7E1"></path><path d="M18.5793 10.2159H9.37099L11.2777 8.30928C11.5918 7.99512 11.5918 7.47508 11.2777 7.16092C10.9635 6.84675 10.4435 6.84675 10.1293 7.16092L6.83599 10.4543C6.76016 10.5301 6.70599 10.6168 6.66266 10.7143C6.57599 10.9093 6.57599 11.1368 6.66266 11.3318C6.74932 11.5268 6.90099 11.6893 7.10683 11.7759C7.20433 11.8193 7.31267 11.8409 7.421 11.8409H18.5902C19.0343 11.8409 19.4027 11.4726 19.4027 11.0284C19.4027 10.5843 19.0343 10.2159 18.5793 10.2159Z" fill="#F4D7E1"></path></svg>